<svg viewBox="0 0 103 33" fill="none" xmlns="http://www.w3.org/2000/svg"><g filter="url(#filter0_d_3769_10764)"><path d="M13.7044 0.00554844L13.7037 1.77372L5.41232 6.74489L5.41113 9.739L4.6272 9.2436L4.62869 5.4715L13.7044 0.00554844Z" fill="#004596"></path><path d="M26.9863 6.37591L26.9819 17.4093L24.5405 15.9231L24.5435 8.47317L23.6247 9.03862L23.6256 6.82251L17.8916 3.35462L17.8926 0.832031L26.9863 6.37591Z" fill="#004596"></path><path d="M6.71118 7.52263L5.41126 8.88946L5.41211 6.74414L6.71118 7.52263Z" fill="#E86B00"></path><path d="M9.28733 9.10259L7.49428 10.9879L5.41123 9.73759L5.41157 8.88887L6.71153 7.522L9.28733 9.10259Z" fill="#DB4893"></path><path d="M11.8846 10.6848L10.0916 12.5701L7.49339 10.9896L9.28643 9.10423L11.8846 10.6848Z" fill="#12A8DF"></path><path d="M11.0979 15.8215L11.099 13.2046L10.6062 12.8979L10.091 12.5677L11.8841 10.6824L14.4823 12.2629L11.0979 15.8215Z" fill="#004596"></path><path d="M14.5257 16.5302L11.0965 20.1123L11.0982 15.8216L14.4825 12.2631L14.5273 12.2867L14.5257 16.5302Z" fill="#E86B00"></path><path d="M14.5471 20.8214L13.0455 22.3768L11.1192 21.1972L11.1197 20.0892L14.5264 16.5306L14.5471 20.8214Z" fill="#DB4893"></path><path d="M23.6269 6.96277L23.626 9.03741L19.0098 11.7939L23.6269 6.96277Z" fill="#DB4893"></path><path d="M14.5011 23.3217L13.0228 22.4252L14.502 20.8463L14.5011 23.3217Z" fill="#4CA4D9"></path><path d="M11.0996 13.2061L11.0952 24.2395L2.00149 18.6721L2.00586 7.63867L4.62646 9.24285L5.4104 9.73825L7.49345 10.9886L10.0917 12.5692L10.6068 12.8994L11.0996 13.2061Z" fill="#00A7E2"></path><path d="M23.6272 6.82196L23.6271 6.96342L19.01 11.7946L19.01 11.8182L18.405 12.1716L15.447 13.9386L15.4463 15.5417L14.5274 16.5315L14.5291 12.2879L17.8904 10.2617L23.6272 6.82196Z" fill="#7B4A2A"></path><path d="M15.4442 19.8557L14.5253 20.8219L14.527 16.5312L15.4459 15.5414L15.4442 19.8557Z" fill="#774159"></path><path d="M23.6269 6.96277L23.626 9.03741L19.0098 11.7939L23.6269 6.96277Z" fill="#774159"></path><path d="M15.4439 19.8558L15.4428 22.7792L14.524 23.3447L14.525 20.8221L15.4439 19.8558Z" fill="#405C6C"></path><path d="M24.5432 8.47235L24.5388 19.5293L15.4407 24.9953L15.4428 19.8558L15.4445 15.5414L15.4451 13.9383L18.4031 12.1713L19.0081 11.8179L19.0081 11.7943L23.6244 9.03781L24.5432 8.47235Z" fill="#00A7E2"></path><path d="M13.7029 1.74884L14.5096 1.27766L13.7029 1.74884Z" fill="white"></path><path d="M6.7112 7.5225L10.1628 3.89322L5.41209 6.74399L13.7034 1.77282L10.1628 3.89322L6.7112 7.5225Z" fill="#6775B2"></path><path d="M6.71008 7.52372L5.41098 6.74521L10.1617 3.89446L6.71008 7.52372Z" fill="#EF9659"></path><path d="M9.28622 9.10157L6.71042 7.52098L10.162 3.8917L13.7027 1.74772L14.5094 1.27653L15.9205 2.14938L9.28622 9.10157Z" fill="#E68AB8"></path><path d="M11.8845 10.6838L9.28631 9.10325L15.9206 2.15107L18.5188 3.73166L11.8845 10.6838Z" fill="#7FC2E9"></path><path d="M14.4822 12.2639L11.884 10.6833L18.5182 3.73114L21.094 5.28816L14.4822 12.2639Z" fill="#6775B2"></path><path d="M14.5284 12.2891L14.4836 12.2655L21.0954 5.28973L23.6264 6.84672L14.5284 12.2891Z" fill="#EF9659"></path></g><path d="M36.915 20.4383C33.987 20.4383 32.5352 18.3862 32.5352 15.8265V8.4477C32.5352 5.88804 33.9882 3.83594 36.915 3.83594H38.068C40.9961 3.83594 42.4711 5.88804 42.4711 8.4477V15.8265C42.4711 18.3862 40.9961 20.4383 38.068 20.4383H36.915ZM40.2579 8.4477C40.2579 7.06417 39.6125 5.95761 38.068 5.95761H36.915C35.3937 5.95761 34.7483 7.06417 34.7483 8.4477V15.8265C34.7483 17.1869 35.3937 18.3166 36.915 18.3166H38.068C39.6125 18.3166 40.2579 17.1869 40.2579 15.8265V8.4477Z" fill="#004596"></path><path d="M52.639 20.4383C49.7096 20.4383 48.2578 18.3862 48.2578 15.8265V8.4477C48.2578 5.88804 49.7109 3.83594 52.639 3.83594H54.4141C56.7432 3.83594 58.195 4.82785 58.195 7.2252C58.195 7.8474 57.873 8.33176 57.0884 8.33176C56.282 8.33176 55.9819 7.8474 55.9819 7.2252C55.9819 6.34793 55.3584 5.95761 54.4141 5.95761H52.639C51.1176 5.95761 50.4709 7.06417 50.4709 8.4477V15.8265C50.4709 17.1869 51.1163 18.3166 52.639 18.3166H54.4141C55.3597 18.3166 55.9819 17.925 55.9819 17.0258C55.9819 16.4023 56.2807 15.918 57.0884 15.918C57.873 15.918 58.195 16.4036 58.195 17.0258C58.195 19.4232 56.7432 20.4383 54.4141 20.4383H52.639Z" fill="#004596"></path><path d="M64.7902 20.2069C63.9837 20.2069 63.6836 19.7226 63.6836 19.0991V5.17492C63.6836 4.55272 63.9837 4.06836 64.7902 4.06836H71.4759C72.0749 4.06836 72.5361 4.36722 72.5361 5.12855C72.5361 5.88859 72.0749 6.19003 71.4759 6.19003H65.8967V10.8237H70.3694C70.9684 10.8237 71.4296 11.147 71.4296 11.8839C71.4296 12.6452 70.9684 12.9441 70.3694 12.9441H65.8967V18.0866H71.4759C72.0749 18.0866 72.5361 18.3867 72.5361 19.1468C72.5361 19.9081 72.0749 20.2082 71.4759 20.2082H64.7902V20.2069Z" fill="#004596"></path><path d="M84.8738 15.7106H79.8936L78.626 19.6293C78.4418 20.1832 78.0025 20.5748 77.3108 20.3674C76.5958 20.1368 76.4348 19.5597 76.619 18.9839L81.2308 4.64235C81.4163 4.08971 81.6919 3.83594 82.3386 3.83594H82.4533C83.0768 3.83594 83.3756 4.08971 83.5611 4.64235L88.1729 18.9839C88.3571 19.5365 88.1497 20.1356 87.4811 20.3674C86.8125 20.5748 86.3501 20.1832 86.1659 19.6293L84.8738 15.7106ZM82.7289 9.02353C82.5679 8.51726 82.4984 8.26349 82.3837 7.70956H82.3605C82.2446 8.26349 82.175 8.51597 82.014 9.02353L80.5609 13.5657H84.2271L82.7289 9.02353Z" fill="#004596"></path><path d="M95.1084 9.16332H95.0852C95.1316 9.57812 95.178 10.132 95.178 10.7542V19.3311C95.178 19.9301 94.8546 20.4389 94.0701 20.4389C93.2637 20.4389 92.9648 19.9314 92.9648 19.3311V4.94446C92.9648 4.32097 93.2637 3.83789 94.0701 3.83789C94.5313 3.83789 94.8546 3.97573 95.2012 4.64559L100.528 15.1122H100.551C100.506 14.6961 100.458 14.1448 100.458 13.5213V4.94446C100.458 4.32097 100.758 3.83789 101.565 3.83789C102.349 3.83789 102.671 4.32225 102.671 4.94446V19.3311C102.671 19.9301 102.349 20.4389 101.565 20.4389C101.104 20.4389 100.758 20.2766 100.435 19.6312L95.1084 9.16332Z" fill="#004596"></path><defs><filter id="filter0_d_3769_10764" x="0.0340369" y="0.00585938" width="30.2322" height="32.8609" filterUnits="userSpaceOnUse" color-interpolation-filters="sRGB"><feFlood flood-opacity="0" result="BackgroundImageFix"></feFlood><feColorMatrix in="SourceAlpha" type="matrix" values="0 0 0 0 0 0 0 0 0 0 0 0 0 0 0 0 0 0 127 0" result="hardAlpha"></feColorMatrix><feOffset dx="0.655972" dy="5.24778"></feOffset><feGaussianBlur stdDeviation="1.31194"></feGaussianBlur><feColorMatrix type="matrix" values="0 0 0 0 0 0 0 0 0 0 0 0 0 0 0 0 0 0 0.12 0"></feColorMatrix><feBlend mode="normal" in2="BackgroundImageFix" result="effect1_dropShadow_3769_10764"></feBlend><feBlend mode="normal" in="SourceGraphic" in2="effect1_dropShadow_3769_10764" result="shape"></feBlend></filter></defs></svg>